<svg width="114" height="342" viewBox="0 0 114 342" fill="none" xmlns="http://www.w3.org/2000/svg">
<path d="M0.0214844 192.742C2.73257 196.149 5.15238 200.273 7.01205 205.496C7.28092 206.527 8.58045 211.862 8.46842 217.241C8.51323 221.276 9.02856 225.086 9.61111 228H0.0214844V192.742Z" fill="#E78244"/>
<path d="M0.0214844 146.479C1.36582 148.092 2.62054 149.549 3.78564 150.76C5.98139 153.068 8.60285 155.108 11.4036 157.282C18.4613 162.729 26.505 168.983 30.9413 181.58C31.2102 182.633 32.4649 187.945 32.3529 193.325C32.4201 201.842 34.8175 209.418 34.9519 209.732C34.9967 209.844 35.0415 210.001 35.0639 210.136C37.9319 217.644 41.7408 223.405 45.7738 228.045H25.7208C25.2054 226.207 24.1972 221.769 24.1524 217.129H24.1076C24.1524 216.927 24.1524 216.725 24.1524 216.546C24.1524 208.455 22.1583 201.394 22.0687 201.08C22.0238 200.968 21.979 200.811 21.9566 200.699C16.7137 185.457 7.54979 177.097 0.0214844 171.045V146.479Z" fill="#1A3560"/>
<path d="M24.1524 217.084C24.1972 221.724 25.2054 226.162 25.7208 228H9.61111C9.02856 225.086 8.51323 221.298 8.46842 217.241C8.58045 211.862 7.28092 206.527 7.01205 205.496C5.17479 200.273 2.73257 196.149 0.0214844 192.742V171.022C7.54979 177.074 16.6913 185.435 21.9566 200.632C22.0014 200.744 22.0462 200.901 22.0687 201.013C22.1359 201.327 24.1524 208.387 24.1524 216.479C24.1524 216.681 24.1524 216.882 24.1076 217.062H24.1524V217.084Z" fill="#C77039"/>
<path d="M0.0214844 114H17.6099C21.0156 119.066 24.6677 123.661 27.6925 126.843C29.8882 129.13 32.5097 131.169 35.3552 133.321C42.413 138.813 50.4342 145.022 54.8929 157.663C55.1394 158.65 56.3941 163.827 56.3045 169.319V169.409C56.3941 177.881 58.7691 185.457 58.8587 185.771C58.9036 185.928 58.9708 186.04 59.0156 186.197C65.4908 203.187 76.6712 211.324 84.8269 217.241C87.3363 219.057 89.4649 220.626 90.8988 222.038C92.4672 223.562 94.3045 225.646 96.2314 228H69.479C62.3764 222.867 54.5345 216.86 49.8517 204.756C49.538 203.77 48.1937 198.861 48.0368 193.571V192.54C48.0368 184.449 46.0651 177.433 45.9979 177.119C45.9531 176.962 45.9083 176.85 45.8411 176.693C39.926 159.457 28.9696 151.029 20.9932 144.865C18.551 142.982 16.4896 141.323 15.0781 139.889C10.5521 135.114 3.76323 125.476 0.0214844 118.057V114.022V114Z" fill="white"/>
<path d="M69.479 228H45.7738C41.7408 223.36 37.9319 217.6 35.0639 210.091C35.0191 209.979 34.9743 209.822 34.9519 209.687C34.8399 209.374 32.4425 201.798 32.3529 193.28C32.4649 187.901 31.2102 182.611 30.9413 181.535C26.505 168.938 18.4613 162.684 11.4036 157.238C8.62526 155.086 5.98139 153.046 3.78564 150.715C2.59814 149.505 1.34342 148.048 0.0214844 146.434V118.012C3.74082 125.431 10.5297 135.092 15.1005 139.844C16.512 141.301 18.5958 142.937 21.0156 144.82C28.992 150.984 39.926 159.434 45.8635 176.648C45.9307 176.805 45.9755 176.917 46.0203 177.074C46.1099 177.388 48.0592 184.404 48.0592 192.495V193.527C48.2161 198.816 49.5604 203.725 49.8741 204.711C54.5345 216.793 62.3988 222.8 69.5014 227.955L69.479 228Z" fill="#1D56A3"/>
<path d="M37.2148 114H64.953C70.2856 118.595 75.5061 124.4 78.7549 133.702C79.0238 134.733 80.2785 140.068 80.2113 145.447C80.3009 153.965 82.6535 161.496 82.7655 161.81C82.8104 161.967 82.8552 162.079 82.9224 162.236C89.3976 179.271 100.578 187.407 108.734 193.28C110.728 194.782 112.587 196.059 113.954 197.292V225.512C109.921 219.751 105.44 214.282 101.878 210.786C99.5922 208.544 96.9035 206.594 94.0356 204.51C86.821 199.242 78.5757 193.325 73.7585 180.84C73.4896 179.809 72.1005 174.922 71.9884 169.61V168.579C71.9884 160.532 70.0167 153.472 69.9047 153.158C69.8599 153.001 69.8151 152.889 69.7927 152.732C63.8328 135.54 52.9212 127.068 44.9448 120.904C42.5026 119.021 40.3964 117.407 39.0297 115.95C38.4696 115.367 37.8422 114.74 37.2148 113.978V114Z" fill="#EB833E"/>
<path d="M17.6094 114H37.2367C37.8641 114.74 38.4914 115.367 39.0516 115.972C40.4183 117.429 42.5469 119.043 44.9667 120.926C52.9431 127.09 63.8322 135.563 69.8146 152.755C69.8594 152.912 69.9042 153.024 69.9266 153.18C70.0386 153.494 72.0103 160.555 72.0103 168.602V169.633C72.1223 174.923 73.5115 179.831 73.7804 180.862C78.5976 193.347 86.8429 199.265 94.0575 204.532C96.9254 206.617 99.6365 208.567 101.899 210.808C105.462 214.305 109.943 219.751 113.976 225.534V228H96.2308C94.3039 225.646 92.4667 223.562 90.8983 222.038C89.4419 220.626 87.3358 219.057 84.8264 217.241C76.6707 211.324 65.4903 203.187 59.015 186.197C58.9702 186.04 58.903 185.928 58.8582 185.771C58.7686 185.457 56.3936 177.881 56.3039 169.409V169.319C56.3936 163.827 55.1164 158.65 54.8924 157.663C50.4113 145.022 42.4124 138.813 35.3547 133.321C32.5315 131.169 29.9101 129.13 27.6919 126.843C24.6672 123.661 21.015 119.066 17.6094 114Z" fill="#C77039"/>
<path d="M86.1484 114H103.58C103.894 116.129 104.163 118.797 104.14 121.486C104.23 130.004 106.605 137.58 106.739 137.894C106.784 138.006 106.829 138.163 106.851 138.297C108.845 143.565 111.332 147.958 113.999 151.679V177.657C107.882 172.995 101.676 167.145 97.7098 156.901C97.3961 155.87 95.9845 150.737 95.9397 145.291H95.8949C95.9397 145.089 95.9397 144.887 95.9397 144.708C95.9397 136.616 93.9456 129.556 93.856 129.242C93.8112 129.13 93.7664 128.973 93.744 128.838C91.705 122.943 89.0836 118.124 86.1708 114H86.1484Z" fill="#1A3560"/>
<path d="M64.9746 114H86.1704C89.0831 118.124 91.7046 122.943 93.7435 128.838C93.7883 128.95 93.8331 129.107 93.8555 129.242C93.9451 129.556 95.9392 136.616 95.9392 144.708C95.9392 144.91 95.9392 145.089 95.8944 145.291H95.9392C95.984 150.737 97.3956 155.893 97.7093 156.901C101.675 167.145 107.881 172.995 113.998 177.657V197.292C112.631 196.082 110.772 194.782 108.778 193.28C100.622 187.385 89.4416 179.271 82.9664 162.236C82.8991 162.079 82.8543 161.967 82.8095 161.81C82.6975 161.496 80.3449 153.965 80.2553 145.447C80.3449 140.068 79.0678 134.733 78.7989 133.702C75.5501 124.4 70.3296 118.595 64.997 114H64.9746Z" fill="#1D56A3"/>
<path d="M104.14 121.509C104.185 118.797 103.894 116.129 103.58 114.022H113.976V151.701C111.31 147.98 108.845 143.565 106.829 138.32C106.784 138.208 106.739 138.051 106.717 137.916C106.605 137.602 104.207 130.026 104.118 121.509H104.14Z" fill="white"/>
<path d="M0.0438881 57L57.0215 57L57.0215 3.8147e-06L0.0438881 3.8147e-06L0.0438881 57Z" fill="#C77039"/>
<path d="M46.7365 46.6894C47.6327 45.8376 42.8827 17.6626 40.575 15.466C38.2672 13.2694 9.87921 8.18131 9.13982 9.12271C8.80374 9.54859 11.6941 36.4235 15.8615 40.3237C19.5585 43.7755 45.9075 47.4739 46.7141 46.7118L46.7365 46.6894Z" fill="white"/>
<path d="M35.5765 14.7938C34.501 16.3852 33.4031 17.9542 32.3725 19.5681C31.8796 20.3526 31.4987 21.1819 31.073 22.0113C30.4456 21.8544 29.8406 21.675 29.2133 21.5181C26.5022 20.8009 23.8135 20.0388 21.08 19.5457C20.7215 19.4784 20.363 19.456 19.9822 19.4112C19.6013 19.3664 19.4668 19.5457 19.4892 19.9043C19.534 20.6888 19.7133 21.4733 19.8925 22.2354C20.4751 24.8803 21.1024 27.5028 21.797 30.1029C20.5199 30.8874 19.31 31.784 18.1225 32.703C17.5623 33.1513 17.0022 33.622 16.4645 34.1151C16.1956 34.3616 15.9043 34.5858 15.6355 34.8323C15.4562 34.9892 15.2322 35.2134 15.0081 35.3703C15.0081 35.3703 14.9409 35.4151 14.8513 35.4824C14.6944 35.5944 14.5152 35.7289 14.3583 35.841C14.1343 35.9979 13.9326 36.1324 13.7086 36.2669C13.7086 36.2669 13.6638 36.2893 13.6414 36.3117C13.3949 35.4599 13.126 34.5858 12.902 33.7116C11.58 28.6235 10.639 23.4458 9.89961 18.2456C9.51871 15.5111 9.20503 12.7541 9.02578 9.99711C8.95857 8.8988 8.84654 8.94363 10.0564 8.98846C13.7982 9.14536 17.4951 9.54882 21.1921 10.1764C26.3005 11.0506 31.3418 12.2834 36.3159 13.7179C36.0694 14.0765 35.823 14.4352 35.5989 14.7938H35.5765Z" fill="#1D56A3"/>
<path d="M20.296 41.0633C21.3715 39.4719 22.4694 37.9029 23.5 36.289C23.993 35.5045 24.3739 34.6752 24.7996 33.8458C25.4269 34.0027 26.0319 34.1821 26.6592 34.339C29.3703 35.0562 32.059 35.8183 34.7925 36.3114C35.151 36.3787 35.5095 36.4011 35.8904 36.4459C36.2713 36.4907 36.4057 36.3114 36.3833 35.9528C36.3385 35.1683 36.1592 34.3838 35.98 33.6217C35.3974 30.9768 34.7701 28.3543 34.0755 25.7542C35.3526 24.9697 36.5625 24.0731 37.75 23.1541C38.3102 22.7058 38.8703 22.2351 39.4081 21.742C39.6769 21.4955 39.9682 21.2713 40.2371 21.0248C40.4163 20.8679 40.6404 20.6437 40.8644 20.4868C40.8644 20.4868 40.9316 20.442 41.0213 20.3747C41.1781 20.2627 41.3574 20.1282 41.5142 20.0161C41.7382 19.8592 41.9399 19.7247 42.164 19.5902C42.164 19.5902 42.2088 19.5678 42.2312 19.5454C42.4776 20.3972 42.7465 21.2713 42.9706 22.1455C44.2925 27.2336 45.2335 32.4113 45.9729 37.6115C46.3538 40.346 46.6675 43.103 46.8467 45.86C46.914 46.9583 47.026 46.9135 45.8161 46.8686C42.0743 46.7117 38.3774 46.3083 34.6805 45.6807C29.572 44.8065 24.5307 43.5737 19.5566 42.1392C19.8031 41.7806 20.0496 41.4219 20.2736 41.0633H20.296Z" fill="#1A3560"/>
<path d="M57 113.978V56.9775H0.0224037V113.978H57Z" fill="#1D56A3"/>
<path d="M46.6914 67.2655C45.84 66.3689 17.676 71.1208 15.4803 73.4294C13.2845 75.7381 8.22085 104.137 9.13949 104.855C9.56519 105.191 36.4296 102.299 40.3282 98.1302C43.7786 94.4318 47.4756 68.0724 46.7138 67.2655H46.6914Z" fill="white"/>
<path d="M14.8071 78.4282C16.3979 79.5041 17.9663 80.6024 19.5795 81.6334C20.3637 82.1265 21.1928 82.5076 22.0218 82.9335C21.8649 83.5611 21.6857 84.1663 21.5288 84.7939C20.8119 87.506 20.0501 90.1957 19.5571 92.9303C19.4899 93.2889 19.4675 93.6476 19.4227 94.0286C19.3779 94.4097 19.5571 94.5442 19.9156 94.5217C20.6998 94.4769 21.484 94.2976 22.2458 94.1183C24.8897 93.5355 27.5112 92.9079 30.1102 92.2131C30.8944 93.4907 31.7906 94.7011 32.7093 95.889C33.1574 96.4494 33.6279 97.0098 34.1208 97.5477C34.3673 97.8167 34.5913 98.1081 34.8378 98.377C34.9946 98.5563 35.2187 98.7805 35.3755 99.0046C35.3755 99.0046 35.4203 99.0719 35.4876 99.1615C35.5996 99.3184 35.734 99.4978 35.8461 99.6547C36.0029 99.8788 36.1373 100.081 36.2718 100.305C36.2718 100.305 36.2942 100.35 36.3166 100.372C35.4652 100.618 34.5913 100.887 33.7175 101.112C28.6314 102.434 23.4557 103.375 18.2576 104.115C15.5241 104.496 12.7682 104.81 10.0123 104.989C8.91445 105.057 8.95926 105.169 9.00408 103.958C9.16092 100.215 9.56422 96.5166 10.1916 92.8182C11.0654 87.7077 12.2977 82.6645 13.7317 77.6885C14.0902 77.935 14.4487 78.1816 14.8071 78.4057V78.4282Z" fill="#C77039"/>
<path d="M41.0446 93.7149C39.4538 92.639 37.8854 91.5407 36.2722 90.5096C35.488 90.0165 34.659 89.6354 33.83 89.2096C33.9868 88.582 34.1661 87.9768 34.3229 87.3492C35.0399 84.637 35.8017 81.9473 36.2946 79.2127C36.3618 78.8541 36.3842 78.4954 36.429 78.1144C36.4738 77.7334 36.2946 77.5989 35.9361 77.6213C35.1519 77.6661 34.3677 77.8454 33.6059 78.0248C30.962 78.6075 28.3406 79.2351 25.7415 79.93C24.9573 78.6524 24.0611 77.442 23.1425 76.254C22.6944 75.6936 22.2238 75.1333 21.7309 74.5953C21.4844 74.3264 21.2604 74.035 21.0139 73.766C20.8571 73.5867 20.633 73.3625 20.4762 73.1384C20.4762 73.1384 20.4314 73.0712 20.3642 72.9815C20.2521 72.8246 20.1177 72.6453 20.0057 72.4884C19.8488 72.2642 19.7144 72.0625 19.58 71.8384C19.58 71.8384 19.5576 71.7935 19.5352 71.7711C20.3866 71.5246 21.2604 71.2556 22.1342 71.0314C27.2203 69.709 32.396 68.7676 37.5941 68.0279C40.3276 67.6469 43.0835 67.333 45.8394 67.1537C46.9373 67.0865 46.8925 66.9744 46.8477 68.1848C46.6908 71.928 46.2875 75.6264 45.6602 79.3248C44.7863 84.4353 43.554 89.4785 42.1201 94.4546C41.7616 94.208 41.4031 93.9614 41.0446 93.7373V93.7149Z" fill="#EB833E"/>
<path d="M57 0V57H113.978V0H57Z" fill="#1D56A3"/>
<path d="M67.2833 46.7343C68.1347 47.6309 96.2987 42.879 98.4944 40.5703C100.69 38.2616 105.754 9.86246 104.835 9.1452C104.41 8.80898 77.5451 11.7005 73.6465 15.8695C70.1961 19.5679 66.4991 45.9274 67.2609 46.7343H67.2833Z" fill="white"/>
<path d="M99.1911 35.5718C97.6003 34.4959 96.0319 33.3976 94.4187 32.3665C93.6345 31.8734 92.8055 31.4924 91.9765 31.0665C92.1333 30.4389 92.3125 29.8337 92.4694 29.2061C93.1864 26.4939 93.9482 23.8042 94.4411 21.0696C94.5083 20.711 94.5307 20.3524 94.5755 19.9713C94.6203 19.5903 94.4411 19.4558 94.0826 19.4782C93.2984 19.523 92.5142 19.7024 91.7524 19.8817C89.1085 20.4645 86.4871 21.0921 83.888 21.7869C83.1038 20.5093 82.2076 19.2989 81.289 18.1109C80.8408 17.5506 80.3703 16.9902 79.8774 16.4523C79.6309 16.1833 79.4069 15.8919 79.1604 15.6229C79.0036 15.4436 78.7795 15.2195 78.6227 14.9953C78.6227 14.9953 78.5779 14.9281 78.5107 14.8384C78.3986 14.6815 78.2642 14.5022 78.1522 14.3453C77.9953 14.1212 77.8609 13.9194 77.7265 13.6953C77.7265 13.6953 77.704 13.6505 77.6816 13.628C78.5331 13.3815 79.4069 13.1125 80.2807 12.8884C85.3668 11.5659 90.5425 10.6245 95.7406 9.88483C98.4741 9.50378 101.23 9.18998 103.986 9.01066C105.084 8.94342 105.039 8.83135 104.994 10.0417C104.837 13.7849 104.434 17.4833 103.807 21.1817C102.933 26.2922 101.701 31.3355 100.267 36.3115C99.9081 36.0649 99.5496 35.8184 99.1911 35.5942V35.5718Z" fill="#C77039"/>
<path d="M72.9302 20.2851C74.521 21.361 76.0894 22.4593 77.7026 23.4904C78.4868 23.9835 79.3158 24.3645 80.1448 24.7904C79.988 25.418 79.8087 26.0232 79.6519 26.6508C78.9349 29.3629 78.1731 32.0527 77.6802 34.7872C77.613 35.1459 77.5906 35.5045 77.5458 35.8856C77.5009 36.2666 77.6802 36.4011 78.0387 36.3787C78.8229 36.3338 79.6071 36.1545 80.3689 35.9752C83.0127 35.3924 85.6342 34.7648 88.2333 34.07C89.0175 35.3476 89.9137 36.558 90.8323 37.746C91.2804 38.3063 91.7509 38.8667 92.2439 39.4046C92.4903 39.6736 92.7144 39.965 92.9609 40.234C93.1177 40.4133 93.3417 40.6374 93.4986 40.8616C93.4986 40.8616 93.5434 40.9288 93.6106 41.0185C93.7226 41.1754 93.8571 41.3547 93.9691 41.5116C94.1259 41.7357 94.2604 41.9375 94.3948 42.1616C94.3948 42.1616 94.4172 42.2064 94.4396 42.2289C93.5882 42.4754 92.7144 42.7444 91.8406 42.9685C86.7545 44.291 81.5788 45.2324 76.3807 45.9721C73.6472 46.3531 70.8913 46.6669 68.1354 46.8462C67.0375 46.9135 67.0823 47.0256 67.1271 45.8152C67.284 42.072 67.6873 38.3736 68.3146 34.6752C69.1884 29.5647 70.4208 24.5214 71.8547 19.5454C72.2132 19.792 72.5717 20.0385 72.9302 20.2627V20.2851Z" fill="#EB833E"/>
<path d="M113.978 57H57V114H113.978V57Z" fill="#C77039"/>
<path d="M67.2615 67.3107C66.3653 68.1625 71.1153 96.3375 73.4231 98.5341C75.8205 100.82 104.119 105.796 104.836 104.877C105.172 104.451 102.282 77.5765 98.1141 73.6764C94.4172 70.2246 68.0681 66.5262 67.2615 67.2883V67.3107Z" fill="white"/>
<path d="M78.421 99.2064C79.4965 97.6149 80.5944 96.0459 81.625 94.4321C82.118 93.6476 82.4989 92.8182 82.9246 91.9889C83.5519 92.1458 84.1569 92.3251 84.7842 92.482C87.4953 93.1993 90.184 93.9614 92.9175 94.4545C93.276 94.5217 93.6345 94.5442 94.0154 94.589C94.3963 94.6338 94.5307 94.4545 94.5083 94.0959C94.4635 93.3114 94.2842 92.5269 94.105 91.7648C93.5224 89.1199 92.8951 86.4974 92.2005 83.8973C93.4776 83.1128 94.6875 82.2162 95.875 81.2972C96.4352 80.8489 96.9953 80.3782 97.5331 79.8851C97.8019 79.6385 98.0932 79.4144 98.3621 79.1678C98.5413 79.0109 98.7654 78.7868 98.9894 78.6299C98.9894 78.6299 99.0566 78.5851 99.1463 78.5178C99.3031 78.4057 99.4824 78.2713 99.6392 78.1592C99.8633 78.0023 100.065 77.8678 100.289 77.7333C100.289 77.7333 100.334 77.7109 100.356 77.6885C100.603 78.5402 100.872 79.4144 101.096 80.2886C102.417 85.3766 103.359 90.5544 104.098 95.7545C104.479 98.4891 104.792 101.246 104.972 104.003C105.039 105.101 105.151 105.057 103.941 105.012C100.199 104.855 96.5024 104.451 92.8055 103.824C87.697 102.95 82.6557 101.717 77.6816 100.282C77.9281 99.9236 78.1746 99.565 78.3986 99.2064H78.421Z" fill="#1D56A3"/>
<path d="M93.6995 72.9593C92.6241 74.5508 91.5262 76.1198 90.4955 77.7336C90.0026 78.5181 89.6217 79.3475 89.196 80.1768C88.5686 80.0199 87.9637 79.8406 87.3363 79.6837C84.6252 78.9664 81.9366 78.2043 79.2031 77.7112C78.8446 77.644 78.4861 77.6215 78.1052 77.5767C77.7243 77.5319 77.5899 77.7112 77.6123 78.0698C77.6571 78.8543 77.8363 79.6388 78.0156 80.4009C78.5981 83.0458 79.2255 85.6683 79.9201 88.2684C78.6429 89.0529 77.433 89.9495 76.2455 90.8685C75.6854 91.3168 75.1252 91.7875 74.5875 92.2806C74.3186 92.5272 74.0274 92.7513 73.7585 92.9979C73.5793 93.1548 73.3552 93.3789 73.1311 93.5358C73.1311 93.5358 73.0639 93.5806 72.9743 93.6479C72.8175 93.76 72.6382 93.8944 72.4814 94.0065C72.2573 94.1634 72.0557 94.2979 71.8316 94.4324C71.8316 94.4324 71.7868 94.4548 71.7644 94.4772C71.5179 93.6255 71.2491 92.7513 71.025 91.8772C69.7031 86.7891 68.762 81.6113 68.0227 76.4112C67.6418 73.6766 67.3281 70.9196 67.1488 68.1626C67.0816 67.0643 66.9696 67.1092 68.1795 67.154C71.9212 67.3109 75.6182 67.7143 79.3151 68.342C84.4236 69.2161 89.4649 70.4489 94.4389 71.8834C94.1925 72.2421 93.946 72.6007 93.7219 72.9593H93.6995Z" fill="#1A3560"/>
<path d="M57 285V228H0V285H57ZM38.0672 256.534C38.0672 261.779 33.7877 265.993 28.5224 266.015C23.6604 266.015 19.0672 262.16 19.0672 256.534C19.0672 250.818 23.7724 246.985 28.5896 247.075C33.4068 247.007 38.0224 250.952 38.0672 256.534Z" fill="#E68247"/>
<path d="M28.4769 272.605C36.7446 272.605 44.6314 266.195 44.6314 256.512C44.6314 247.165 37.2823 240.396 28.5217 240.396C18.9321 240.396 12.3448 248.241 12.3672 256.512C12.3672 265.365 19.6267 272.605 28.4769 272.605ZM28.5665 247.053C33.3838 246.985 37.9993 250.93 38.0441 256.512C38.0441 261.757 33.7647 265.97 28.4993 265.993C23.6373 265.993 19.0441 262.138 19.0441 256.512C19.0441 250.796 23.7493 246.963 28.5665 247.053Z" fill="#1D56A3"/>
<path d="M19.0664 256.533C19.0664 250.817 23.7716 246.985 28.5888 247.074C33.406 247.007 38.0216 250.952 38.0664 256.533C38.0664 261.778 33.7869 265.992 28.5216 266.015C23.6596 266.015 19.0664 262.159 19.0664 256.533Z" fill="white"/>
<path d="M57 342V285H0V342H57ZM38.0672 313.534C38.0672 318.779 33.7877 322.993 28.5224 323.015C23.6604 323.015 19.0672 319.16 19.0672 313.534C19.0672 307.818 23.7724 303.985 28.5896 304.075C33.4068 304.007 38.0224 307.952 38.0672 313.534Z" fill="#1D56A3"/>
<path d="M28.4769 329.605C36.7446 329.605 44.6314 323.195 44.6314 313.512C44.6314 304.165 37.2823 297.396 28.5217 297.396C18.9321 297.396 12.3448 305.241 12.3672 313.512C12.3672 322.365 19.6267 329.605 28.4769 329.605ZM28.5665 304.053C33.3838 303.985 37.9993 307.93 38.0441 313.512C38.0441 318.757 33.7647 322.97 28.4993 322.993C23.6373 322.993 19.0441 319.138 19.0441 313.512C19.0441 307.796 23.7493 303.963 28.5665 304.053Z" fill="#1A3560"/>
<path d="M19.0664 313.533C19.0664 307.818 23.7716 303.985 28.5888 304.074C33.406 304.007 38.0216 307.952 38.0664 313.533C38.0664 318.778 33.7869 322.992 28.5216 323.015C23.6596 323.015 19.0664 319.159 19.0664 313.533Z" fill="white"/>
<path d="M57 285V342H114V285H57ZM75.9328 313.466C75.9328 308.221 80.2123 304.007 85.4776 303.985C90.3396 303.985 94.9328 307.84 94.9328 313.466C94.9328 319.182 90.2276 323.015 85.4104 322.925C80.5932 322.993 75.9776 319.048 75.9328 313.466Z" fill="#E68247"/>
<path d="M85.5217 297.396C77.254 297.396 69.3672 303.806 69.3672 313.489C69.3672 322.836 76.7162 329.605 85.4769 329.605C95.0665 329.605 101.654 321.76 101.631 313.489C101.631 304.635 94.3719 297.396 85.5217 297.396ZM85.432 322.948C80.6148 323.015 75.9993 319.07 75.9545 313.489C75.9545 308.244 80.2339 304.03 85.4993 304.008C90.3613 304.008 94.9545 307.863 94.9545 313.489C94.9545 319.205 90.2493 323.038 85.432 322.948Z" fill="#1D56A3"/>
<path d="M94.9316 313.467C94.9316 319.182 90.2265 323.015 85.4092 322.926C80.592 322.993 75.9765 319.048 75.9316 313.467C75.9316 308.222 80.2111 304.008 85.4765 303.985C90.3385 303.985 94.9316 307.841 94.9316 313.467Z" fill="white"/>
<path d="M57 228V285H114V228H57ZM75.9328 256.466C75.9328 251.221 80.2123 247.007 85.4776 246.985C90.3396 246.985 94.9328 250.84 94.9328 256.466C94.9328 262.182 90.2276 266.015 85.4104 265.925C80.5932 265.993 75.9776 262.048 75.9328 256.466Z" fill="#1D56A3"/>
<path d="M85.5217 240.396C77.254 240.396 69.3672 246.806 69.3672 256.489C69.3672 265.836 76.7162 272.605 85.4769 272.605C95.0665 272.605 101.654 264.76 101.631 256.489C101.631 247.635 94.3719 240.396 85.5217 240.396ZM85.432 265.948C80.6148 266.015 75.9993 262.07 75.9545 256.489C75.9545 251.244 80.2339 247.03 85.4993 247.008C90.3613 247.008 94.9545 250.863 94.9545 256.489C94.9545 262.205 90.2493 266.038 85.432 265.948Z" fill="#1A3560"/>
<path d="M94.9316 256.467C94.9316 262.182 90.2265 266.015 85.4092 265.926C80.592 265.993 75.9765 262.048 75.9316 256.467C75.9316 251.222 80.2111 247.008 85.4765 246.985C90.3385 246.985 94.9316 250.841 94.9316 256.467Z" fill="white"/>
</svg>
